<svg width="14" height="16" viewBox="0 0 14 16" fill="none" xmlns="http://www.w3.org/2000/svg">
<path d="M12.25 3.33333L1.75001 3.33333C1.6437 3.33371 1.5395 3.36722 1.44862 3.43025C1.35773 3.49328 1.28361 3.58344 1.23423 3.69103C1.18485 3.79863 1.16208 3.91957 1.16837 4.04085C1.17466 4.16214 1.20977 4.27916 1.26993 4.37933L6.51993 13.046C6.73751 13.4053 7.26134 13.4053 7.47951 13.046L12.7295 4.37933C12.7903 4.27937 12.8259 4.16229 12.8325 4.0408C12.8392 3.91932 12.8166 3.79808 12.7671 3.69026C12.7177 3.58244 12.6434 3.49216 12.5522 3.42924C12.461 3.36631 12.3565 3.33314 12.25 3.33333Z" fill="#3A2B2B"/>
</svg>
