<svg width="21" height="20" viewBox="0 0 21 20" fill="none" xmlns="http://www.w3.org/2000/svg">
<path d="M16.2746 4C16.9708 4 17.6385 4.26339 18.1308 4.73223C18.623 5.20107 18.8996 5.83696 18.8996 6.5V14.5C18.8996 15.163 18.623 15.7989 18.1308 16.2678C17.6385 16.7366 16.9708 17 16.2746 17H4.72461C4.02842 17 3.36074 16.7366 2.86845 16.2678C2.37617 15.7989 2.09961 15.163 2.09961 14.5V6.5C2.09961 5.83696 2.37617 5.20107 2.86845 4.73223C3.36074 4.26339 4.02842 4 4.72461 4H16.2746ZM17.8496 7.961L10.7663 11.931C10.6993 11.9684 10.6245 11.9913 10.5471 11.9978C10.4698 12.0044 10.3919 11.9946 10.319 11.969L10.2329 11.931L3.14961 7.963V14.5C3.14961 14.8978 3.31555 15.2794 3.61092 15.5607C3.90629 15.842 4.30689 16 4.72461 16H16.2746C16.6923 16 17.0929 15.842 17.3883 15.5607C17.6837 15.2794 17.8496 14.8978 17.8496 14.5V7.961ZM16.2746 5H4.72461C4.30689 5 3.90629 5.15804 3.61092 5.43934C3.31555 5.72064 3.14961 6.10218 3.14961 6.5V6.802L10.4996 10.92L17.8496 6.8V6.5C17.8496 6.10218 17.6837 5.72064 17.3883 5.43934C17.0929 5.15804 16.6923 5 16.2746 5Z" fill="white"/>
</svg>
