<svg width="24" height="20" viewBox="0 0 24 20" fill="none" xmlns="http://www.w3.org/2000/svg">
<path d="M12 5C11.2583 5 10.5333 5.18328 9.91661 5.52666C9.29993 5.87004 8.81928 6.3581 8.53545 6.92911C8.25162 7.50013 8.17736 8.12847 8.32205 8.73466C8.46675 9.34085 8.8239 9.89767 9.34835 10.3347C9.8728 10.7717 10.541 11.0694 11.2684 11.19C11.9958 11.3105 12.7498 11.2486 13.4351 11.0121C14.1203 10.7756 14.706 10.3751 15.118 9.86116C15.5301 9.34725 15.75 8.74307 15.75 8.125C15.75 7.2962 15.3549 6.50134 14.6517 5.91529C13.9484 5.32924 12.9946 5 12 5ZM12 10C11.555 10 11.12 9.89003 10.75 9.68401C10.38 9.47798 10.0916 9.18514 9.92127 8.84253C9.75097 8.49992 9.70642 8.12292 9.79323 7.75921C9.88005 7.39549 10.0943 7.0614 10.409 6.79917C10.7237 6.53695 11.1246 6.35837 11.561 6.28603C11.9975 6.21368 12.4499 6.25081 12.861 6.39273C13.2722 6.53464 13.6236 6.77496 13.8708 7.08331C14.118 7.39165 14.25 7.75416 14.25 8.125C14.25 8.62228 14.0129 9.09919 13.591 9.45083C13.169 9.80246 12.5967 10 12 10ZM12 1.25C9.81273 1.25207 7.71575 1.97706 6.16911 3.26592C4.62247 4.55479 3.75248 6.30227 3.75 8.125C3.75 10.5781 5.11031 13.1781 7.6875 15.6445C8.84552 16.759 10.1489 17.7626 11.5734 18.6367C11.6995 18.7103 11.8498 18.7498 12.0037 18.7498C12.1577 18.7498 12.308 18.7103 12.4341 18.6367C13.856 17.7623 15.1568 16.7587 16.3125 15.6445C18.8859 13.1781 20.25 10.5781 20.25 8.125C20.2475 6.30227 19.3775 4.55479 17.8309 3.26592C16.2843 1.97706 14.1873 1.25207 12 1.25ZM12 17.3438C10.4503 16.3281 5.25 12.5977 5.25 8.125C5.25 6.63316 5.96116 5.20242 7.22703 4.14752C8.4929 3.09263 10.2098 2.5 12 2.5C13.7902 2.5 15.5071 3.09263 16.773 4.14752C18.0388 5.20242 18.75 6.63316 18.75 8.125C18.75 12.5961 13.5497 16.3281 12 17.3438Z" fill="white"/>
</svg>
