<svg width="26" height="22" viewBox="0 0 26 22" fill="none" xmlns="http://www.w3.org/2000/svg">
<path d="M9.75 1.83331H16.25C17.112 1.83331 17.9386 2.12304 18.5481 2.63877C19.1576 3.15449 19.5 3.85397 19.5 4.58331V17.4166C19.5 18.146 19.1576 18.8455 18.5481 19.3612C17.9386 19.8769 17.112 20.1666 16.25 20.1666H9.75C8.88805 20.1666 8.0614 19.8769 7.4519 19.3612C6.84241 18.8455 6.5 18.146 6.5 17.4166V4.58331C6.5 3.85397 6.84241 3.15449 7.4519 2.63877C8.0614 2.12304 8.88805 1.83331 9.75 1.83331ZM9.75 3.66665C9.46268 3.66665 9.18713 3.76322 8.98397 3.93513C8.7808 4.10704 8.66667 4.3402 8.66667 4.58331V17.4166C8.66667 17.6598 8.7808 17.8929 8.98397 18.0648C9.18713 18.2367 9.46268 18.3333 9.75 18.3333H16.25C16.5373 18.3333 16.8129 18.2367 17.016 18.0648C17.2192 17.8929 17.3333 17.6598 17.3333 17.4166V4.58331C17.3333 4.3402 17.2192 4.10704 17.016 3.93513C16.8129 3.76322 16.5373 3.66665 16.25 3.66665H9.75ZM13 17.4166C12.7127 17.4166 12.4371 17.3201 12.234 17.1482C12.0308 16.9763 11.9167 16.7431 11.9167 16.5C11.9167 16.2569 12.0308 16.0237 12.234 15.8518C12.4371 15.6799 12.7127 15.5833 13 15.5833C13.2873 15.5833 13.5629 15.6799 13.766 15.8518C13.9692 16.0237 14.0833 16.2569 14.0833 16.5C14.0833 16.7431 13.9692 16.9763 13.766 17.1482C13.5629 17.3201 13.2873 17.4166 13 17.4166Z" fill="white"/>
</svg>
