<svg width="28" height="24" viewBox="0 0 28 24" fill="none" xmlns="http://www.w3.org/2000/svg">
<g clip-path="url(#clip0_163_118)">
<path d="M14.2936 7.67317L14.0068 7.57653C13.279 7.29982 13.2688 7.06085 13.5704 6.4639L15.1671 3.25516C15.6422 2.29873 15.6358 1.9227 16.6859 2.27428L16.9727 2.37093L14.2936 7.67317ZM14.9957 7.87135L17.5979 2.72127C18.6622 3.27172 21.2857 4.83507 21.227 6.6685C21.168 8.30806 20.844 8.49557 20.4407 9.84468C19.4497 12.2272 18.0439 14.8959 16.9199 16.926C16.036 18.1084 16.1531 18.476 14.7492 19.6022C13.2524 20.7986 10.0493 20.3339 8.81539 20.1028L11.4176 14.9527L13.2258 15.9102C13.7441 16.1804 14.3875 15.4578 14.7424 14.7555C15.3535 13.5299 16.6231 11.0334 17.0803 10.0152C17.4292 9.32458 17.6118 8.42861 17.0186 8.29049L14.9957 7.87135ZM8.09365 19.9598L7.80291 19.8548C6.83766 19.4647 7.15952 19.2003 7.64253 18.2606L9.27093 15.0702C9.58049 14.4899 9.77397 14.3176 10.482 14.5525L10.7629 14.6609L8.09365 19.9598Z" fill="white"/>
</g>
<defs>
<clipPath id="clip0_163_118">
<rect width="20.8656" height="18.4917" fill="white" transform="matrix(0.946966 -0.321333 0.428881 0.903361 0 6.70479)"/>
</clipPath>
</defs>
</svg>
