<svg width="18" height="20" viewBox="0 0 18 20" fill="none" xmlns="http://www.w3.org/2000/svg">
<path d="M13.95 4C14.5467 4 15.119 4.26339 15.541 4.73223C15.9629 5.20107 16.2 5.83696 16.2 6.5V14.5C16.2 15.163 15.9629 15.7989 15.541 16.2678C15.119 16.7366 14.5467 17 13.95 17H4.04999C3.45325 17 2.88095 16.7366 2.459 16.2678C2.03704 15.7989 1.79999 15.163 1.79999 14.5V6.5C1.79999 5.83696 2.03704 5.20107 2.459 4.73223C2.88095 4.26339 3.45325 4 4.04999 4H13.95ZM15.3 7.961L9.22859 11.931C9.17119 11.9684 9.10703 11.9913 9.04073 11.9978C8.97443 12.0044 8.90765 11.9946 8.84519 11.969L8.77139 11.931L2.69999 7.963V14.5C2.69999 14.8978 2.84222 15.2794 3.09539 15.5607C3.34857 15.842 3.69195 16 4.04999 16H13.95C14.308 16 14.6514 15.842 14.9046 15.5607C15.1578 15.2794 15.3 14.8978 15.3 14.5V7.961ZM13.95 5H4.04999C3.69195 5 3.34857 5.15804 3.09539 5.43934C2.84222 5.72064 2.69999 6.10218 2.69999 6.5V6.802L8.99999 10.92L15.3 6.8V6.5C15.3 6.10218 15.1578 5.72064 14.9046 5.43934C14.6514 5.15804 14.308 5 13.95 5Z" fill="#2D2828"/>
</svg>
