<svg width="24" height="24" viewBox="0 0 24 24" fill="none" xmlns="http://www.w3.org/2000/svg">
<g clip-path="url(#clip0_1_81)">
<path d="M12.0844 7.67321L11.8419 7.57657C11.2266 7.29986 11.2179 7.06088 11.4729 6.46394L12.8228 3.2552C13.2245 2.29877 13.219 1.92274 14.1069 2.27432L14.3493 2.37097L12.0844 7.67321ZM12.6779 7.87139L14.8779 2.72131C15.7777 3.27176 17.9956 4.83511 17.9459 6.66854C17.8961 8.3081 17.6222 8.49561 17.2812 9.84472C16.4434 12.2273 15.2549 14.896 14.3047 16.926C13.5574 18.1085 13.6564 18.476 12.4695 19.6022C11.2041 20.7987 8.4961 20.3339 7.45296 20.1028L9.65293 14.9528L11.1816 15.9102C11.6198 16.1805 12.1638 15.4578 12.4638 14.7556C12.9804 13.5299 14.0537 11.0335 14.4403 10.0152C14.7353 9.32462 14.8896 8.42865 14.3881 8.29053L12.6779 7.87139ZM6.84278 19.9598L6.59698 19.8548C5.78095 19.4647 6.05305 19.2003 6.46139 18.2606L7.83808 15.0702C8.09978 14.49 8.26336 14.3176 8.86195 14.5526L9.0994 14.6609L6.84278 19.9598Z" fill="#2D2828"/>
</g>
<defs>
<clipPath id="clip0_1_81">
<rect width="18" height="18" fill="white" transform="translate(0 6.70483) rotate(-21.8692)"/>
</clipPath>
</defs>
</svg>
