<svg width="24" height="24" viewBox="0 0 24 24" fill="none" xmlns="http://www.w3.org/2000/svg">
<path d="M21.7431 12.331L12.7431 2.331C12.3641 1.909 11.6361 1.909 11.2571 2.331L2.25712 12.331C2.1278 12.4747 2.04291 12.6528 2.01274 12.8438C1.98257 13.0348 2.0084 13.2304 2.08712 13.407C2.24712 13.768 2.60512 14 3.00012 14H5.00012V21C5.00012 21.2652 5.10547 21.5196 5.29301 21.7071C5.48055 21.8946 5.7349 22 6.00012 22H9.00012C9.26533 22 9.51969 21.8946 9.70722 21.7071C9.89476 21.5196 10.0001 21.2652 10.0001 21V17H14.0001V21C14.0001 21.2652 14.1055 21.5196 14.293 21.7071C14.4805 21.8946 14.7349 22 15.0001 22H18.0001C18.2653 22 18.5197 21.8946 18.7072 21.7071C18.8948 21.5196 19.0001 21.2652 19.0001 21V14H21.0001C21.1938 14.0008 21.3835 13.9453 21.5462 13.8401C21.7088 13.735 21.8373 13.5848 21.9161 13.4079C21.9949 13.231 22.0205 13.0349 21.9897 12.8437C21.959 12.6525 21.8733 12.4744 21.7431 12.331Z" fill="white"/>
</svg>
