<svg width="75" height="75" viewBox="0 0 75 75" fill="none" xmlns="http://www.w3.org/2000/svg">
<path d="M25 28.125H50M25 40.625H43.75M37.5219 58.1125L25 65.625V56.25H18.75C16.2636 56.25 13.879 55.2623 12.1209 53.5041C10.3627 51.746 9.375 49.3614 9.375 46.875V21.875C9.375 19.3886 10.3627 17.004 12.1209 15.2459C13.879 13.4877 16.2636 12.5 18.75 12.5H56.25C58.7364 12.5 61.121 13.4877 62.8791 15.2459C64.6373 17.004 65.625 19.3886 65.625 21.875V35.9375M59.375 56.25V56.2813M66.0031 62.8781C67.3145 61.5671 68.2077 59.8967 68.5697 58.078C68.9316 56.2594 68.7461 54.3742 68.0366 52.661C67.3272 50.9478 66.1255 49.4834 64.5838 48.4532C63.042 47.4229 61.2293 46.873 59.375 46.873C57.5207 46.873 55.708 47.4229 54.1662 48.4532C52.6245 49.4834 51.4228 50.9478 50.7134 52.661C50.0039 54.3742 49.8184 56.2594 50.1803 58.078C50.5423 59.8967 51.4355 61.5671 52.7469 62.8781C54.0531 64.1865 56.2625 66.1438 59.375 68.75C62.6604 65.9688 64.8698 64.0115 66.0031 62.8781Z" stroke="black" stroke-width="2" stroke-linecap="round" stroke-linejoin="round"/>
</svg>
